<?xml version="1.0" encoding="UTF-8" standalone="no"?>
<svg
   xmlns:dc="http://purl.org/dc/elements/1.1/"
   xmlns:cc="http://creativecommons.org/ns#"
   xmlns:rdf="http://www.w3.org/1999/02/22-rdf-syntax-ns#"
   xmlns:svg="http://www.w3.org/2000/svg"
   xmlns="http://www.w3.org/2000/svg"
   xmlns:sodipodi="http://sodipodi.sourceforge.net/DTD/sodipodi-0.dtd"
   xmlns:inkscape="http://www.inkscape.org/namespaces/inkscape"
   version="1.1"
   id="svg2"
   width="24"
   height="19"
   viewBox="0 0 24 19"
   sodipodi:docname="GIF.svg"
   inkscape:version="1.0.2-2 (e86c870879, 2021-01-15)">
  <metadata
     id="metadata8">
    <rdf:RDF>
      <cc:Work
         rdf:about="">
        <dc:format>image/svg+xml</dc:format>
        <dc:type
           rdf:resource="http://purl.org/dc/dcmitype/StillImage" />
        <dc:title></dc:title>
      </cc:Work>
    </rdf:RDF>
  </metadata>
  <defs
     id="defs6">
    <filter
       inkscape:collect="always"
       style="color-interpolation-filters:sRGB"
       id="filter930"
       x="-0.078806666"
       width="1.1576133"
       y="-0.17543995"
       height="1.3508799">
      <feGaussianBlur
         inkscape:collect="always"
         stdDeviation="0.61640109"
         id="feGaussianBlur932" />
    </filter>
    <filter
       inkscape:collect="always"
       style="color-interpolation-filters:sRGB"
       id="filter1070"
       x="-0.029844157"
       width="1.0596883"
       y="-0.037746385"
       height="1.0754928">
      <feGaussianBlur
         inkscape:collect="always"
         stdDeviation="0.29844157"
         id="feGaussianBlur1072" />
    </filter>
  </defs>
  <sodipodi:namedview
     pagecolor="#ffffff"
     bordercolor="#666666"
     borderopacity="1"
     objecttolerance="10"
     gridtolerance="10"
     guidetolerance="10"
     inkscape:pageopacity="0"
     inkscape:pageshadow="2"
     inkscape:window-width="1920"
     inkscape:window-height="1017"
     id="namedview4"
     showgrid="false"
     inkscape:zoom="40.96"
     inkscape:cx="14.197142"
     inkscape:cy="13.060004"
     inkscape:window-x="-8"
     inkscape:window-y="-8"
     inkscape:window-maximized="1"
     inkscape:current-layer="g10" />
  <g
     inkscape:groupmode="layer"
     inkscape:label="Image"
     id="g10">
    <rect
       style="opacity:1;fill:#b9bbbe;fill-opacity:1;stroke-width:2.1595;filter:url(#filter1070)"
       id="rect837"
       width="24"
       height="18.975586"
       x="-7.2164497e-16"
       y="0.024414049"
       ry="1.1474609"
       transform="matrix(0.94573261,0,0,0.93005658,0.66341579,0.66531634)" />
    <g
       aria-label="GIF"
       transform="matrix(1.0069505,0,0,0.99309746,-0.26855469,0)"
       id="text845"
       style="font-size:11.9099px;line-height:1.25;font-family:sans-serif;stroke-width:2.97744;filter:url(#filter930)">
      <path
         d="m 2.8667989,9.874782 q 0,-1.9946756 1.07003,-3.0879672 1.0700301,-1.0932916 3.0065518,-1.0932916 1.3607991,0 2.2098447,0.4594151 0.8490456,0.4594151 1.3084606,1.4712913 L 9.4032868,7.9382602 Q 9.0543639,7.2404145 8.4379336,6.9205686 7.8273186,6.6007226 6.9143038,6.6007226 q -1.4189529,0 -2.169137,0.8606764 -0.7501841,0.8548609 -0.7501841,2.413383 0,1.552707 0.7967072,2.454091 0.7967071,0.895568 2.2040293,0.895568 0.8025225,0 1.4945528,-0.244246 0.6978457,-0.244246 1.1281839,-0.662953 V 10.840135 H 7.1701806 V 9.9096743 h 3.4717824 v 2.8262747 q -0.6513228,0.662954 -1.5992298,1.029323 -0.9420917,0.360553 -2.047014,0.360553 -1.2851992,0 -2.2156601,-0.511753 Q 3.8495982,13.102318 3.3552908,12.14278 2.8667989,11.177427 2.8667989,9.874782 Z"
         style="font-style:normal;font-variant:normal;font-weight:normal;font-stretch:normal;font-family:'Liberation Sans';-inkscape-font-specification:'Liberation Sans';stroke-width:2.97744"
         id="path847" />
      <path
         d="M 12.630823,14.009518 V 5.8156462 h 1.110738 v 8.1938718 z"
         style="font-style:normal;font-variant:normal;font-weight:normal;font-stretch:normal;font-family:'Liberation Sans';-inkscape-font-specification:'Liberation Sans';stroke-width:2.97744"
         id="path849" />
      <path
         d="m 16.928389,6.7228456 v 3.0472595 h 4.57089 v 0.9188299 h -4.57089 v 3.320583 H 15.817652 V 5.8156462 h 5.821196 v 0.9071994 z"
         style="font-style:normal;font-variant:normal;font-weight:normal;font-stretch:normal;font-family:'Liberation Sans';-inkscape-font-specification:'Liberation Sans';stroke-width:2.97744"
         id="path851" />
    </g>
  </g>
</svg>
