<?xml version="1.0" encoding="UTF-8" standalone="no"?>
<svg
   xmlns:dc="http://purl.org/dc/elements/1.1/"
   xmlns:cc="http://creativecommons.org/ns#"
   xmlns:rdf="http://www.w3.org/1999/02/22-rdf-syntax-ns#"
   xmlns:svg="http://www.w3.org/2000/svg"
   xmlns="http://www.w3.org/2000/svg"
   xmlns:sodipodi="http://sodipodi.sourceforge.net/DTD/sodipodi-0.dtd"
   xmlns:inkscape="http://www.inkscape.org/namespaces/inkscape"
   version="1.1"
   id="svg2"
   width="21"
   height="20"
   viewBox="0 0 21 20"
   sodipodi:docname="Sticker.svg"
   inkscape:version="1.0.2-2 (e86c870879, 2021-01-15)">
  <metadata
     id="metadata8">
    <rdf:RDF>
      <cc:Work
         rdf:about="">
        <dc:format>image/svg+xml</dc:format>
        <dc:type
           rdf:resource="http://purl.org/dc/dcmitype/StillImage" />
        <dc:title />
      </cc:Work>
    </rdf:RDF>
  </metadata>
  <defs
     id="defs6">
    <filter
       inkscape:collect="always"
       style="color-interpolation-filters:sRGB"
       id="filter936"
       x="-0.020986722"
       width="1.0419734"
       y="-0.022129562"
       height="1.0442591">
      <feGaussianBlur
         inkscape:collect="always"
         stdDeviation="0.17530085"
         id="feGaussianBlur938" />
    </filter>
    <filter
       inkscape:collect="always"
       style="color-interpolation-filters:sRGB"
       id="filter1191"
       x="-0.0193825"
       width="1.038765"
       y="-0.02181051"
       height="1.043621">
      <feGaussianBlur
         inkscape:collect="always"
         stdDeviation="0.079800516"
         id="feGaussianBlur1193" />
    </filter>
    <filter
       inkscape:collect="always"
       style="color-interpolation-filters:sRGB"
       id="filter1035"
       x="-0.035103198"
       width="1.0702064"
       y="-0.034225618"
       height="1.0684512">
      <feGaussianBlur
         inkscape:collect="always"
         stdDeviation="0.013421811"
         id="feGaussianBlur1037" />
    </filter>
    <filter
       inkscape:collect="always"
       style="color-interpolation-filters:sRGB"
       id="filter1039"
       x="-0.035103198"
       width="1.0702064"
       y="-0.034225618"
       height="1.0684512">
      <feGaussianBlur
         inkscape:collect="always"
         stdDeviation="0.013421811"
         id="feGaussianBlur1041" />
    </filter>
    <filter
       inkscape:collect="always"
       style="color-interpolation-filters:sRGB"
       id="filter1043"
       x="-0.02719345"
       width="1.0543869"
       y="-0.047431331"
       height="1.0948627">
      <feGaussianBlur
         inkscape:collect="always"
         stdDeviation="0.060252148"
         id="feGaussianBlur1045" />
    </filter>
  </defs>
  <sodipodi:namedview
     pagecolor="#ffffff"
     bordercolor="#666666"
     borderopacity="1"
     objecttolerance="10"
     gridtolerance="10"
     guidetolerance="10"
     inkscape:pageopacity="0"
     inkscape:pageshadow="2"
     inkscape:window-width="1920"
     inkscape:window-height="1017"
     id="namedview4"
     showgrid="false"
     inkscape:zoom="42.5"
     inkscape:cx="10.585932"
     inkscape:cy="9.2699605"
     inkscape:window-x="-8"
     inkscape:window-y="-8"
     inkscape:window-maximized="1"
     inkscape:current-layer="g10"
     inkscape:document-rotation="0" />
  <g
     inkscape:groupmode="layer"
     inkscape:label="Image"
     id="g10">
    <path
       id="rect837"
       style="opacity:1;fill:#bdbbbe;fill-opacity:1;filter:url(#filter936)"
       d="M 0,0 14.235294,0.04705885 20.047058,6.1176471 V 17.435294 l -1.22353,1.529411 -17.3411756,0.04706 -1.43529358,-0.988235 z"
       sodipodi:nodetypes="cccccccc"
       transform="matrix(1.0062227,0,0,1.0086764,0.431744,0.43847524)" />
    <path
       id="rect940"
       style="opacity:1;fill:#40444b;fill-opacity:1;filter:url(#filter1191)"
       d="m 10.376471,-0.04705882 h 1.2 c 0,0 -0.214091,4.78848072 -0.02353,5.28235302 0.190561,0.4938723 1.069119,1.6081064 1.905883,1.982353 0.581362,0.2600169 6.682352,0.1470565 6.682352,0.1470565 l 0.02353,1.2705882 c 0,0 -6.047774,0.2100074 -6.670588,0.017647 -0.80049,-0.2472366 -2.908606,-2.7252365 -3.117647,-3.3235295 -0.209041,-0.598293 0,-5.37646822 0,-5.37646822 z"
       sodipodi:nodetypes="cczsccszc"
       transform="matrix(0.97519794,0,0,0.96642952,0.84879284,0.54076564)" />
    <ellipse
       style="opacity:1;fill:#40444b;fill-opacity:1;filter:url(#filter1035)"
       id="path1195"
       cx="3.5411766"
       cy="12.494118"
       rx="0.45882353"
       ry="0.47058824"
       transform="matrix(3.3062675,0,0,3.3677857,-7.1618891,-29.947528)" />
    <path
       id="path1809"
       style="opacity:1;fill:#40444d;fill-opacity:1;filter:url(#filter1043)"
       d="m 12.729411,11.388236 c -0.166382,0.64181 -0.09331,1.199886 -0.422118,1.808218 -0.438746,0.724712 -1.332864,1.227076 -2.119058,1.227076 -0.7861943,0 -1.6450175,-0.478835 -2.1425864,-1.203547 -0.4975689,-0.724712 -0.6338836,-1.6953 -0.6338842,-1.831747 -5e-7,-0.136447 0.7010201,0.798846 1.1985893,1.344723 0.4975692,0.545876 0.791687,0.702335 1.5778813,0.702335 0.786194,0 1.045016,-0.1094 1.483762,-0.655276 0.438746,-0.545877 1.057414,-1.528229 1.057414,-1.391782 z"
       sodipodi:nodetypes="ccssssssc"
       transform="matrix(1.0155411,0,0,1.0344368,0.43392106,-0.05321576)" />
    <ellipse
       style="opacity:1;fill:#40444b;fill-opacity:1;filter:url(#filter1039)"
       id="ellipse1976"
       cx="3.5411766"
       cy="12.494118"
       rx="0.45882353"
       ry="0.47058824"
       transform="matrix(3.0897864,0,0,3.1472766,5.7694146,-27.192462)" />
  </g>
</svg>
