<?xml version="1.0" encoding="UTF-8" standalone="no"?>
<svg
   xmlns:dc="http://purl.org/dc/elements/1.1/"
   xmlns:cc="http://creativecommons.org/ns#"
   xmlns:rdf="http://www.w3.org/1999/02/22-rdf-syntax-ns#"
   xmlns:svg="http://www.w3.org/2000/svg"
   xmlns="http://www.w3.org/2000/svg"
   xmlns:sodipodi="http://sodipodi.sourceforge.net/DTD/sodipodi-0.dtd"
   xmlns:inkscape="http://www.inkscape.org/namespaces/inkscape"
   height="16"
   viewBox="0 0 16 16"
   width="16"
   version="1.1"
   id="svg8"
   sodipodi:docname="TextEdit.svg"
   inkscape:version="1.0.2-2 (e86c870879, 2021-01-15)">
  <metadata
     id="metadata14">
    <rdf:RDF>
      <cc:Work
         rdf:about="">
        <dc:format>image/svg+xml</dc:format>
        <dc:type
           rdf:resource="http://purl.org/dc/dcmitype/StillImage" />
      </cc:Work>
    </rdf:RDF>
  </metadata>
  <defs
     id="defs12" />
  <sodipodi:namedview
     pagecolor="#ffffff"
     bordercolor="#666666"
     borderopacity="1"
     objecttolerance="10"
     gridtolerance="10"
     guidetolerance="10"
     inkscape:pageopacity="0"
     inkscape:pageshadow="2"
     inkscape:window-width="1920"
     inkscape:window-height="1017"
     id="namedview10"
     showgrid="false"
     inkscape:zoom="64"
     inkscape:cx="4.1230211"
     inkscape:cy="8.1398358"
     inkscape:window-x="-8"
     inkscape:window-y="-8"
     inkscape:window-maximized="1"
     inkscape:current-layer="svg8"
     inkscape:document-rotation="0" />
  <g
     transform="translate(0 -1036.4)"
     id="g6">
    <path
       d="m29 1042.4h1v1h-1z"
       fill="#fefeff"
       id="path2" />
    <path
       d="M 3,1 C 1.8954,1 1,1.8954 1,3 v 10 c 0,1.1046 0.89543,2 2,2 h 10 c 1.1046,0 2,-0.8954 2,-2 V 3 C 15,1.8954 14.10457,1 13,1 Z M 3,3 H 13 V 13 H 3 Z m 6.4375,0.734375 v 8.4375 h 1 v -8.4375 z"
       fill="#8eef97"
       id="path4"
       transform="translate(0,1036.4)"
       sodipodi:nodetypes="ssssssssscccccccccc" />
  </g>
  <g
     aria-label="Di"
     transform="matrix(1.1372222,0,0,2.1898322,-0.998604,-5.3800893)"
     id="text84"
     style="font-size:4.30591px;line-height:1.25;font-family:sans-serif;opacity:1;fill:#8eef97;fill-opacity:1;stroke-width:1.07648">
    <path
       d="m 4.7806528,4.8969768 v 2.4409969 h 0.5130088 q 0.649671,0 0.9503278,-0.2943493 0.3027593,-0.2943494 0.3027593,-0.9293029 0,-0.6307486 -0.3027593,-0.9229954 Q 5.9433326,4.8969768 5.2936616,4.8969768 Z M 4.3559488,4.5479626 h 0.8725355 q 0.9124829,0 1.3392894,0.3805516 0.4268065,0.3784491 0.4268065,1.1858073 0,0.8115631 -0.428909,1.1921148 -0.428909,0.3805516 -1.3371869,0.3805516 H 4.3559488 Z"
       style="stroke-width:1.07648"
       id="path834" />
    <path
       d="M 7.6547638,5.3321933 H 8.0416229 V 7.6869879 H 7.6547638 Z m 0,-0.9166879 H 8.0416229 V 4.9053868 H 7.6547638 Z"
       style="stroke-width:1.07648"
       id="path836" />
  </g>
</svg>
